<mxfile host="app.diagrams.net" agent="Mozilla/5.0 (Windows NT 10.0; Win64; x64) AppleWebKit/537.36 (KHTML, like Gecko) Chrome/139.0.0.0 Safari/537.36" version="28.1.0">
  <diagram name="Página-1" id="FnvqE0i3I_hrlVpK8BUk">
    <mxGraphModel dx="1458" dy="570" grid="1" gridSize="10" guides="1" tooltips="1" connect="1" arrows="1" fold="1" page="1" pageScale="1" pageWidth="827" pageHeight="1169" math="0" shadow="0">
      <root>
        <mxCell id="0" />
        <mxCell id="1" parent="0" />
        <mxCell id="K8pAmzDxY5exkbGExF1x-1" value="PERSONAL" style="rounded=0;whiteSpace=wrap;html=1;" vertex="1" parent="1">
          <mxGeometry x="350" y="170" width="120" height="60" as="geometry" />
        </mxCell>
        <mxCell id="K8pAmzDxY5exkbGExF1x-2" value="" style="triangle;whiteSpace=wrap;html=1;rounded=0;rotation=90;" vertex="1" parent="1">
          <mxGeometry x="380" y="290" width="60" height="80" as="geometry" />
        </mxCell>
        <mxCell id="K8pAmzDxY5exkbGExF1x-4" value="Alumnos" style="whiteSpace=wrap;html=1;rounded=0;" vertex="1" parent="1">
          <mxGeometry x="190" y="480" width="120" height="60" as="geometry" />
        </mxCell>
        <mxCell id="K8pAmzDxY5exkbGExF1x-6" value="" style="endArrow=none;html=1;rounded=0;entryX=0.408;entryY=1.05;entryDx=0;entryDy=0;entryPerimeter=0;exitX=-0.013;exitY=0.457;exitDx=0;exitDy=0;exitPerimeter=0;" edge="1" parent="1" source="K8pAmzDxY5exkbGExF1x-2">
          <mxGeometry width="50" height="50" relative="1" as="geometry">
            <mxPoint x="413.04" y="297" as="sourcePoint" />
            <mxPoint x="413.00000000000006" y="230" as="targetPoint" />
          </mxGeometry>
        </mxCell>
        <mxCell id="K8pAmzDxY5exkbGExF1x-7" value="" style="endArrow=none;html=1;rounded=0;entryX=0.5;entryY=1;entryDx=0;entryDy=0;" edge="1" parent="1">
          <mxGeometry width="50" height="50" relative="1" as="geometry">
            <mxPoint x="409.9" y="300" as="sourcePoint" />
            <mxPoint x="409.9" y="230" as="targetPoint" />
          </mxGeometry>
        </mxCell>
        <mxCell id="K8pAmzDxY5exkbGExF1x-9" value="Profesores" style="whiteSpace=wrap;html=1;rounded=0;" vertex="1" parent="1">
          <mxGeometry x="110" y="300" width="120" height="60" as="geometry" />
        </mxCell>
        <mxCell id="K8pAmzDxY5exkbGExF1x-11" value="Visitas" style="whiteSpace=wrap;html=1;rounded=0;" vertex="1" parent="1">
          <mxGeometry x="610" y="300" width="120" height="60" as="geometry" />
        </mxCell>
        <mxCell id="K8pAmzDxY5exkbGExF1x-16" value="" style="endArrow=none;html=1;rounded=0;entryX=0.662;entryY=0.33;entryDx=0;entryDy=0;entryPerimeter=0;exitX=0.5;exitY=0;exitDx=0;exitDy=0;" edge="1" parent="1" source="K8pAmzDxY5exkbGExF1x-17" target="K8pAmzDxY5exkbGExF1x-2">
          <mxGeometry width="50" height="50" relative="1" as="geometry">
            <mxPoint x="470" y="430" as="sourcePoint" />
            <mxPoint x="450" y="370" as="targetPoint" />
          </mxGeometry>
        </mxCell>
        <mxCell id="K8pAmzDxY5exkbGExF1x-17" value="Auditores" style="rounded=0;whiteSpace=wrap;html=1;" vertex="1" parent="1">
          <mxGeometry x="530" y="480" width="120" height="60" as="geometry" />
        </mxCell>
        <mxCell id="K8pAmzDxY5exkbGExF1x-19" value="" style="endArrow=none;html=1;rounded=0;exitX=0.5;exitY=0;exitDx=0;exitDy=0;" edge="1" parent="1" source="K8pAmzDxY5exkbGExF1x-4" target="K8pAmzDxY5exkbGExF1x-2">
          <mxGeometry width="50" height="50" relative="1" as="geometry">
            <mxPoint x="340" y="390" as="sourcePoint" />
            <mxPoint x="390" y="340" as="targetPoint" />
          </mxGeometry>
        </mxCell>
        <mxCell id="K8pAmzDxY5exkbGExF1x-20" value="" style="endArrow=none;html=1;rounded=0;entryX=1;entryY=0.5;entryDx=0;entryDy=0;exitX=0.5;exitY=0;exitDx=0;exitDy=0;" edge="1" parent="1" source="K8pAmzDxY5exkbGExF1x-21" target="K8pAmzDxY5exkbGExF1x-2">
          <mxGeometry width="50" height="50" relative="1" as="geometry">
            <mxPoint x="410" y="480" as="sourcePoint" />
            <mxPoint x="440" y="380" as="targetPoint" />
          </mxGeometry>
        </mxCell>
        <mxCell id="K8pAmzDxY5exkbGExF1x-21" value="Personal Administrativo" style="rounded=0;whiteSpace=wrap;html=1;" vertex="1" parent="1">
          <mxGeometry x="354" y="480" width="120" height="60" as="geometry" />
        </mxCell>
        <mxCell id="K8pAmzDxY5exkbGExF1x-22" value="" style="endArrow=none;html=1;rounded=0;entryX=0.5;entryY=1;entryDx=0;entryDy=0;exitX=1;exitY=0.5;exitDx=0;exitDy=0;" edge="1" parent="1" source="K8pAmzDxY5exkbGExF1x-9" target="K8pAmzDxY5exkbGExF1x-2">
          <mxGeometry width="50" height="50" relative="1" as="geometry">
            <mxPoint x="250" y="360" as="sourcePoint" />
            <mxPoint x="300" y="310" as="targetPoint" />
          </mxGeometry>
        </mxCell>
        <mxCell id="K8pAmzDxY5exkbGExF1x-23" value="" style="endArrow=none;html=1;rounded=0;exitX=0.5;exitY=0;exitDx=0;exitDy=0;entryX=0;entryY=0.5;entryDx=0;entryDy=0;" edge="1" parent="1" source="K8pAmzDxY5exkbGExF1x-2" target="K8pAmzDxY5exkbGExF1x-11">
          <mxGeometry width="50" height="50" relative="1" as="geometry">
            <mxPoint x="530" y="360" as="sourcePoint" />
            <mxPoint x="580" y="310" as="targetPoint" />
          </mxGeometry>
        </mxCell>
        <mxCell id="K8pAmzDxY5exkbGExF1x-26" value="DNI" style="ellipse;whiteSpace=wrap;html=1;" vertex="1" parent="1">
          <mxGeometry x="140" y="80" width="120" height="50" as="geometry" />
        </mxCell>
        <mxCell id="K8pAmzDxY5exkbGExF1x-27" value="NombreC" style="ellipse;whiteSpace=wrap;html=1;" vertex="1" parent="1">
          <mxGeometry x="260" y="40" width="120" height="50" as="geometry" />
        </mxCell>
        <mxCell id="K8pAmzDxY5exkbGExF1x-28" value="Edad" style="ellipse;whiteSpace=wrap;html=1;" vertex="1" parent="1">
          <mxGeometry x="420" y="40" width="120" height="50" as="geometry" />
        </mxCell>
        <mxCell id="K8pAmzDxY5exkbGExF1x-30" value="Teléfono" style="ellipse;whiteSpace=wrap;html=1;" vertex="1" parent="1">
          <mxGeometry x="560" y="50" width="120" height="50" as="geometry" />
        </mxCell>
        <mxCell id="K8pAmzDxY5exkbGExF1x-31" value="IdEmpleado" style="ellipse;whiteSpace=wrap;html=1;" vertex="1" parent="1">
          <mxGeometry x="100" y="160" width="120" height="50" as="geometry" />
        </mxCell>
        <mxCell id="K8pAmzDxY5exkbGExF1x-32" value="Sexo" style="ellipse;whiteSpace=wrap;html=1;" vertex="1" parent="1">
          <mxGeometry x="580" y="125" width="120" height="50" as="geometry" />
        </mxCell>
        <mxCell id="K8pAmzDxY5exkbGExF1x-33" value="" style="endArrow=none;html=1;rounded=0;entryX=0;entryY=0.5;entryDx=0;entryDy=0;exitX=1;exitY=0.5;exitDx=0;exitDy=0;" edge="1" parent="1" source="K8pAmzDxY5exkbGExF1x-31" target="K8pAmzDxY5exkbGExF1x-1">
          <mxGeometry width="50" height="50" relative="1" as="geometry">
            <mxPoint x="290" y="230" as="sourcePoint" />
            <mxPoint x="340" y="180" as="targetPoint" />
          </mxGeometry>
        </mxCell>
        <mxCell id="K8pAmzDxY5exkbGExF1x-34" value="" style="endArrow=none;html=1;rounded=0;entryX=0;entryY=0.25;entryDx=0;entryDy=0;exitX=0.5;exitY=1;exitDx=0;exitDy=0;" edge="1" parent="1" source="K8pAmzDxY5exkbGExF1x-26" target="K8pAmzDxY5exkbGExF1x-1">
          <mxGeometry width="50" height="50" relative="1" as="geometry">
            <mxPoint x="290" y="175" as="sourcePoint" />
            <mxPoint x="340" y="125" as="targetPoint" />
          </mxGeometry>
        </mxCell>
        <mxCell id="K8pAmzDxY5exkbGExF1x-35" value="" style="endArrow=none;html=1;rounded=0;entryX=0.5;entryY=1;entryDx=0;entryDy=0;exitX=0.25;exitY=0;exitDx=0;exitDy=0;" edge="1" parent="1" source="K8pAmzDxY5exkbGExF1x-1" target="K8pAmzDxY5exkbGExF1x-27">
          <mxGeometry width="50" height="50" relative="1" as="geometry">
            <mxPoint x="340" y="160" as="sourcePoint" />
            <mxPoint x="390" y="110" as="targetPoint" />
          </mxGeometry>
        </mxCell>
        <mxCell id="K8pAmzDxY5exkbGExF1x-36" value="" style="endArrow=none;html=1;rounded=0;entryX=0.5;entryY=1;entryDx=0;entryDy=0;exitX=0.75;exitY=0;exitDx=0;exitDy=0;" edge="1" parent="1" source="K8pAmzDxY5exkbGExF1x-1" target="K8pAmzDxY5exkbGExF1x-28">
          <mxGeometry width="50" height="50" relative="1" as="geometry">
            <mxPoint x="440" y="160" as="sourcePoint" />
            <mxPoint x="490" y="110" as="targetPoint" />
          </mxGeometry>
        </mxCell>
        <mxCell id="K8pAmzDxY5exkbGExF1x-37" value="" style="endArrow=none;html=1;rounded=0;exitX=1;exitY=0.25;exitDx=0;exitDy=0;entryX=0.5;entryY=1;entryDx=0;entryDy=0;" edge="1" parent="1" source="K8pAmzDxY5exkbGExF1x-1" target="K8pAmzDxY5exkbGExF1x-30">
          <mxGeometry width="50" height="50" relative="1" as="geometry">
            <mxPoint x="490" y="210" as="sourcePoint" />
            <mxPoint x="540" y="160" as="targetPoint" />
          </mxGeometry>
        </mxCell>
        <mxCell id="K8pAmzDxY5exkbGExF1x-38" value="" style="endArrow=none;html=1;rounded=0;exitX=1;exitY=0.5;exitDx=0;exitDy=0;entryX=0.5;entryY=1;entryDx=0;entryDy=0;" edge="1" parent="1" source="K8pAmzDxY5exkbGExF1x-1" target="K8pAmzDxY5exkbGExF1x-32">
          <mxGeometry width="50" height="50" relative="1" as="geometry">
            <mxPoint x="480" y="290" as="sourcePoint" />
            <mxPoint x="530" y="240" as="targetPoint" />
          </mxGeometry>
        </mxCell>
        <mxCell id="K8pAmzDxY5exkbGExF1x-39" value="Especialidad" style="ellipse;whiteSpace=wrap;html=1;" vertex="1" parent="1">
          <mxGeometry x="190" y="600" width="120" height="55" as="geometry" />
        </mxCell>
        <mxCell id="K8pAmzDxY5exkbGExF1x-40" value="" style="endArrow=none;html=1;rounded=0;entryX=0.5;entryY=1;entryDx=0;entryDy=0;exitX=0.5;exitY=0;exitDx=0;exitDy=0;" edge="1" parent="1" source="K8pAmzDxY5exkbGExF1x-39" target="K8pAmzDxY5exkbGExF1x-4">
          <mxGeometry width="50" height="50" relative="1" as="geometry">
            <mxPoint x="170" y="590" as="sourcePoint" />
            <mxPoint x="220" y="540" as="targetPoint" />
          </mxGeometry>
        </mxCell>
        <mxCell id="K8pAmzDxY5exkbGExF1x-41" value="Departamento" style="ellipse;whiteSpace=wrap;html=1;" vertex="1" parent="1">
          <mxGeometry x="-190" y="280" width="120" height="55" as="geometry" />
        </mxCell>
        <mxCell id="K8pAmzDxY5exkbGExF1x-42" value="SalarioAnual" style="ellipse;whiteSpace=wrap;html=1;" vertex="1" parent="1">
          <mxGeometry x="-180" y="380" width="120" height="55" as="geometry" />
        </mxCell>
        <mxCell id="K8pAmzDxY5exkbGExF1x-43" value="" style="endArrow=none;html=1;rounded=0;entryX=0;entryY=0.25;entryDx=0;entryDy=0;exitX=1;exitY=0.5;exitDx=0;exitDy=0;" edge="1" parent="1" source="K8pAmzDxY5exkbGExF1x-41" target="K8pAmzDxY5exkbGExF1x-9">
          <mxGeometry width="50" height="50" relative="1" as="geometry">
            <mxPoint x="50" y="360" as="sourcePoint" />
            <mxPoint x="100" y="310" as="targetPoint" />
          </mxGeometry>
        </mxCell>
        <mxCell id="K8pAmzDxY5exkbGExF1x-44" value="" style="endArrow=none;html=1;rounded=0;entryX=0;entryY=0.75;entryDx=0;entryDy=0;exitX=1;exitY=0.5;exitDx=0;exitDy=0;" edge="1" parent="1" source="K8pAmzDxY5exkbGExF1x-42" target="K8pAmzDxY5exkbGExF1x-9">
          <mxGeometry width="50" height="50" relative="1" as="geometry">
            <mxPoint x="80" y="420" as="sourcePoint" />
            <mxPoint x="90" y="350" as="targetPoint" />
          </mxGeometry>
        </mxCell>
      </root>
    </mxGraphModel>
  </diagram>
</mxfile>
